<?xml version="1.0" encoding="utf-8" standalone="no"?>
<!DOCTYPE svg PUBLIC "-//W3C//DTD SVG 1.1//EN"
  "http://www.w3.org/Graphics/SVG/1.1/DTD/svg11.dtd">
<svg xmlns:xlink="http://www.w3.org/1999/xlink" width="648pt" height="216pt" viewBox="0 0 648 216" xmlns="http://www.w3.org/2000/svg" version="1.1">
 <metadata>
  <rdf:RDF xmlns:dc="http://purl.org/dc/elements/1.1/" xmlns:cc="http://creativecommons.org/ns#" xmlns:rdf="http://www.w3.org/1999/02/22-rdf-syntax-ns#">
   <cc:Work>
    <dc:type rdf:resource="http://purl.org/dc/dcmitype/StillImage"/>
    <dc:date>2024-07-28T18:31:07.939277</dc:date>
    <dc:format>image/svg+xml</dc:format>
    <dc:creator>
     <cc:Agent>
      <dc:title>Matplotlib v3.7.3, https://matplotlib.org/</dc:title>
     </cc:Agent>
    </dc:creator>
   </cc:Work>
  </rdf:RDF>
 </metadata>
 <defs>
  <style type="text/css">*{stroke-linejoin: round; stroke-linecap: butt}</style>
 </defs>
 <g id="figure_1">
  <g id="patch_1">
   <path d="M 0 216 
L 648 216 
L 648 0 
L 0 0 
z
" style="fill: #ffffff"/>
  </g>
  <g id="axes_1">
   <g id="patch_2">
    <path d="M 48.575 170.6275 
L 489.075 170.6275 
L 489.075 28.92 
L 48.575 28.92 
z
" style="fill: #eaeaf2"/>
   </g>
   <g id="matplotlib.axis_1">
    <g id="xtick_1">
     <g id="line2d_1">
      <path d="M 68.597727 170.6275 
L 68.597727 28.92 
" clip-path="url(#p598f2ee09d)" style="fill: none; stroke: #ffffff; stroke-linecap: round"/>
     </g>
     <g id="line2d_2"/>
     <g id="text_1">
      <!-- -5.0 -->
      <g transform="translate(58.956321 185.225937) scale(0.1 -0.1)">
       <defs>
        <path id="DejaVuSerif-2d" d="M 281 1959 
L 1881 1959 
L 1881 1472 
L 281 1472 
L 281 1959 
z
" transform="scale(0.015625)"/>
        <path id="DejaVuSerif-35" d="M 3219 4666 
L 3219 4153 
L 1081 4153 
L 1081 2816 
Q 1244 2928 1461 2984 
Q 1678 3041 1947 3041 
Q 2703 3041 3140 2622 
Q 3578 2203 3578 1478 
Q 3578 738 3136 323 
Q 2694 -91 1894 -91 
Q 1572 -91 1234 -12 
Q 897 66 544 225 
L 544 1131 
L 897 1131 
Q 925 688 1179 453 
Q 1434 219 1894 219 
Q 2388 219 2653 544 
Q 2919 869 2919 1478 
Q 2919 2084 2655 2407 
Q 2391 2731 1894 2731 
Q 1613 2731 1398 2631 
Q 1184 2531 1019 2322 
L 750 2322 
L 750 4666 
L 3219 4666 
z
" transform="scale(0.015625)"/>
        <path id="DejaVuSerif-2e" d="M 603 325 
Q 603 500 722 622 
Q 841 744 1019 744 
Q 1191 744 1312 622 
Q 1434 500 1434 325 
Q 1434 153 1312 31 
Q 1191 -91 1019 -91 
Q 841 -91 722 29 
Q 603 150 603 325 
z
" transform="scale(0.015625)"/>
        <path id="DejaVuSerif-30" d="M 2034 219 
Q 2513 219 2750 744 
Q 2988 1269 2988 2328 
Q 2988 3391 2750 3916 
Q 2513 4441 2034 4441 
Q 1556 4441 1318 3916 
Q 1081 3391 1081 2328 
Q 1081 1269 1318 744 
Q 1556 219 2034 219 
z
M 2034 -91 
Q 1275 -91 848 546 
Q 422 1184 422 2328 
Q 422 3475 848 4112 
Q 1275 4750 2034 4750 
Q 2797 4750 3222 4112 
Q 3647 3475 3647 2328 
Q 3647 1184 3222 546 
Q 2797 -91 2034 -91 
z
" transform="scale(0.015625)"/>
       </defs>
       <use xlink:href="#DejaVuSerif-2d"/>
       <use xlink:href="#DejaVuSerif-35" x="33.789062"/>
       <use xlink:href="#DejaVuSerif-2e" x="97.412109"/>
       <use xlink:href="#DejaVuSerif-30" x="129.199219"/>
      </g>
     </g>
    </g>
    <g id="xtick_2">
     <g id="line2d_3">
      <path d="M 88.620455 170.6275 
L 88.620455 28.92 
" clip-path="url(#p598f2ee09d)" style="fill: none; stroke: #ffffff; stroke-linecap: round"/>
     </g>
     <g id="line2d_4"/>
     <g id="text_2">
      <!-- -4.5 -->
      <g transform="translate(78.979048 185.225937) scale(0.1 -0.1)">
       <defs>
        <path id="DejaVuSerif-34" d="M 2234 1581 
L 2234 4063 
L 641 1581 
L 2234 1581 
z
M 3609 0 
L 1484 0 
L 1484 331 
L 2234 331 
L 2234 1247 
L 197 1247 
L 197 1588 
L 2241 4750 
L 2859 4750 
L 2859 1581 
L 3750 1581 
L 3750 1247 
L 2859 1247 
L 2859 331 
L 3609 331 
L 3609 0 
z
" transform="scale(0.015625)"/>
       </defs>
       <use xlink:href="#DejaVuSerif-2d"/>
       <use xlink:href="#DejaVuSerif-34" x="33.789062"/>
       <use xlink:href="#DejaVuSerif-2e" x="97.412109"/>
       <use xlink:href="#DejaVuSerif-35" x="129.199219"/>
      </g>
     </g>
    </g>
    <g id="xtick_3">
     <g id="line2d_5">
      <path d="M 108.643182 170.6275 
L 108.643182 28.92 
" clip-path="url(#p598f2ee09d)" style="fill: none; stroke: #ffffff; stroke-linecap: round"/>
     </g>
     <g id="line2d_6"/>
     <g id="text_3">
      <!-- -4.0 -->
      <g transform="translate(99.001776 185.225937) scale(0.1 -0.1)">
       <use xlink:href="#DejaVuSerif-2d"/>
       <use xlink:href="#DejaVuSerif-34" x="33.789062"/>
       <use xlink:href="#DejaVuSerif-2e" x="97.412109"/>
       <use xlink:href="#DejaVuSerif-30" x="129.199219"/>
      </g>
     </g>
    </g>
    <g id="xtick_4">
     <g id="line2d_7">
      <path d="M 128.665909 170.6275 
L 128.665909 28.92 
" clip-path="url(#p598f2ee09d)" style="fill: none; stroke: #ffffff; stroke-linecap: round"/>
     </g>
     <g id="line2d_8"/>
     <g id="text_4">
      <!-- -3.5 -->
      <g transform="translate(119.024503 185.225937) scale(0.1 -0.1)">
       <defs>
        <path id="DejaVuSerif-33" d="M 622 4469 
Q 988 4606 1323 4678 
Q 1659 4750 1953 4750 
Q 2638 4750 3022 4454 
Q 3406 4159 3406 3634 
Q 3406 3213 3140 2930 
Q 2875 2647 2388 2547 
Q 2963 2466 3280 2130 
Q 3597 1794 3597 1259 
Q 3597 606 3158 257 
Q 2719 -91 1894 -91 
Q 1528 -91 1179 -12 
Q 831 66 488 225 
L 488 1131 
L 838 1131 
Q 869 681 1141 450 
Q 1413 219 1906 219 
Q 2384 219 2661 495 
Q 2938 772 2938 1253 
Q 2938 1803 2653 2086 
Q 2369 2369 1819 2369 
L 1522 2369 
L 1522 2688 
L 1678 2688 
Q 2225 2688 2498 2914 
Q 2772 3141 2772 3597 
Q 2772 4006 2547 4223 
Q 2322 4441 1900 4441 
Q 1478 4441 1245 4241 
Q 1013 4041 972 3647 
L 622 3647 
L 622 4469 
z
" transform="scale(0.015625)"/>
       </defs>
       <use xlink:href="#DejaVuSerif-2d"/>
       <use xlink:href="#DejaVuSerif-33" x="33.789062"/>
       <use xlink:href="#DejaVuSerif-2e" x="97.412109"/>
       <use xlink:href="#DejaVuSerif-35" x="129.199219"/>
      </g>
     </g>
    </g>
    <g id="xtick_5">
     <g id="line2d_9">
      <path d="M 148.688636 170.6275 
L 148.688636 28.92 
" clip-path="url(#p598f2ee09d)" style="fill: none; stroke: #ffffff; stroke-linecap: round"/>
     </g>
     <g id="line2d_10"/>
     <g id="text_5">
      <!-- -3.0 -->
      <g transform="translate(139.04723 185.225937) scale(0.1 -0.1)">
       <use xlink:href="#DejaVuSerif-2d"/>
       <use xlink:href="#DejaVuSerif-33" x="33.789062"/>
       <use xlink:href="#DejaVuSerif-2e" x="97.412109"/>
       <use xlink:href="#DejaVuSerif-30" x="129.199219"/>
      </g>
     </g>
    </g>
    <g id="xtick_6">
     <g id="line2d_11">
      <path d="M 168.711364 170.6275 
L 168.711364 28.92 
" clip-path="url(#p598f2ee09d)" style="fill: none; stroke: #ffffff; stroke-linecap: round"/>
     </g>
     <g id="line2d_12"/>
     <g id="text_6">
      <!-- -2.5 -->
      <g transform="translate(159.069957 185.225937) scale(0.1 -0.1)">
       <defs>
        <path id="DejaVuSerif-32" d="M 819 3553 
L 469 3553 
L 469 4384 
Q 803 4563 1142 4656 
Q 1481 4750 1806 4750 
Q 2534 4750 2956 4397 
Q 3378 4044 3378 3438 
Q 3378 2753 2422 1800 
Q 2347 1728 2309 1691 
L 1131 513 
L 3078 513 
L 3078 1088 
L 3444 1088 
L 3444 0 
L 434 0 
L 434 341 
L 1850 1753 
Q 2319 2222 2519 2614 
Q 2719 3006 2719 3438 
Q 2719 3909 2473 4175 
Q 2228 4441 1797 4441 
Q 1350 4441 1106 4219 
Q 863 3997 819 3553 
z
" transform="scale(0.015625)"/>
       </defs>
       <use xlink:href="#DejaVuSerif-2d"/>
       <use xlink:href="#DejaVuSerif-32" x="33.789062"/>
       <use xlink:href="#DejaVuSerif-2e" x="97.412109"/>
       <use xlink:href="#DejaVuSerif-35" x="129.199219"/>
      </g>
     </g>
    </g>
    <g id="xtick_7">
     <g id="line2d_13">
      <path d="M 188.734091 170.6275 
L 188.734091 28.92 
" clip-path="url(#p598f2ee09d)" style="fill: none; stroke: #ffffff; stroke-linecap: round"/>
     </g>
     <g id="line2d_14"/>
     <g id="text_7">
      <!-- -2.0 -->
      <g transform="translate(179.092685 185.225937) scale(0.1 -0.1)">
       <use xlink:href="#DejaVuSerif-2d"/>
       <use xlink:href="#DejaVuSerif-32" x="33.789062"/>
       <use xlink:href="#DejaVuSerif-2e" x="97.412109"/>
       <use xlink:href="#DejaVuSerif-30" x="129.199219"/>
      </g>
     </g>
    </g>
    <g id="xtick_8">
     <g id="line2d_15">
      <path d="M 208.756818 170.6275 
L 208.756818 28.92 
" clip-path="url(#p598f2ee09d)" style="fill: none; stroke: #ffffff; stroke-linecap: round"/>
     </g>
     <g id="line2d_16"/>
     <g id="text_8">
      <!-- -1.5 -->
      <g transform="translate(199.115412 185.225937) scale(0.1 -0.1)">
       <defs>
        <path id="DejaVuSerif-31" d="M 909 0 
L 909 331 
L 1722 331 
L 1722 4213 
L 781 3603 
L 781 4013 
L 1919 4750 
L 2350 4750 
L 2350 331 
L 3163 331 
L 3163 0 
L 909 0 
z
" transform="scale(0.015625)"/>
       </defs>
       <use xlink:href="#DejaVuSerif-2d"/>
       <use xlink:href="#DejaVuSerif-31" x="33.789062"/>
       <use xlink:href="#DejaVuSerif-2e" x="97.412109"/>
       <use xlink:href="#DejaVuSerif-35" x="129.199219"/>
      </g>
     </g>
    </g>
    <g id="xtick_9">
     <g id="line2d_17">
      <path d="M 228.779545 170.6275 
L 228.779545 28.92 
" clip-path="url(#p598f2ee09d)" style="fill: none; stroke: #ffffff; stroke-linecap: round"/>
     </g>
     <g id="line2d_18"/>
     <g id="text_9">
      <!-- -1.0 -->
      <g transform="translate(219.138139 185.225937) scale(0.1 -0.1)">
       <use xlink:href="#DejaVuSerif-2d"/>
       <use xlink:href="#DejaVuSerif-31" x="33.789062"/>
       <use xlink:href="#DejaVuSerif-2e" x="97.412109"/>
       <use xlink:href="#DejaVuSerif-30" x="129.199219"/>
      </g>
     </g>
    </g>
    <g id="xtick_10">
     <g id="line2d_19">
      <path d="M 248.802273 170.6275 
L 248.802273 28.92 
" clip-path="url(#p598f2ee09d)" style="fill: none; stroke: #ffffff; stroke-linecap: round"/>
     </g>
     <g id="line2d_20"/>
     <g id="text_10">
      <!-- -0.5 -->
      <g transform="translate(239.160866 185.225937) scale(0.1 -0.1)">
       <use xlink:href="#DejaVuSerif-2d"/>
       <use xlink:href="#DejaVuSerif-30" x="33.789062"/>
       <use xlink:href="#DejaVuSerif-2e" x="97.412109"/>
       <use xlink:href="#DejaVuSerif-35" x="129.199219"/>
      </g>
     </g>
    </g>
    <g id="xtick_11">
     <g id="line2d_21">
      <path d="M 268.825 170.6275 
L 268.825 28.92 
" clip-path="url(#p598f2ee09d)" style="fill: none; stroke: #ffffff; stroke-linecap: round"/>
     </g>
     <g id="line2d_22"/>
     <g id="text_11">
      <!-- 0.0 -->
      <g transform="translate(260.873438 185.225937) scale(0.1 -0.1)">
       <use xlink:href="#DejaVuSerif-30"/>
       <use xlink:href="#DejaVuSerif-2e" x="63.623047"/>
       <use xlink:href="#DejaVuSerif-30" x="95.410156"/>
      </g>
     </g>
    </g>
    <g id="xtick_12">
     <g id="line2d_23">
      <path d="M 288.847727 170.6275 
L 288.847727 28.92 
" clip-path="url(#p598f2ee09d)" style="fill: none; stroke: #ffffff; stroke-linecap: round"/>
     </g>
     <g id="line2d_24"/>
     <g id="text_12">
      <!-- 0.5 -->
      <g transform="translate(280.896165 185.225937) scale(0.1 -0.1)">
       <use xlink:href="#DejaVuSerif-30"/>
       <use xlink:href="#DejaVuSerif-2e" x="63.623047"/>
       <use xlink:href="#DejaVuSerif-35" x="95.410156"/>
      </g>
     </g>
    </g>
    <g id="xtick_13">
     <g id="line2d_25">
      <path d="M 308.870455 170.6275 
L 308.870455 28.92 
" clip-path="url(#p598f2ee09d)" style="fill: none; stroke: #ffffff; stroke-linecap: round"/>
     </g>
     <g id="line2d_26"/>
     <g id="text_13">
      <!-- 1.0 -->
      <g transform="translate(300.918892 185.225937) scale(0.1 -0.1)">
       <use xlink:href="#DejaVuSerif-31"/>
       <use xlink:href="#DejaVuSerif-2e" x="63.623047"/>
       <use xlink:href="#DejaVuSerif-30" x="95.410156"/>
      </g>
     </g>
    </g>
    <g id="xtick_14">
     <g id="line2d_27">
      <path d="M 328.893182 170.6275 
L 328.893182 28.92 
" clip-path="url(#p598f2ee09d)" style="fill: none; stroke: #ffffff; stroke-linecap: round"/>
     </g>
     <g id="line2d_28"/>
     <g id="text_14">
      <!-- 1.5 -->
      <g transform="translate(320.941619 185.225937) scale(0.1 -0.1)">
       <use xlink:href="#DejaVuSerif-31"/>
       <use xlink:href="#DejaVuSerif-2e" x="63.623047"/>
       <use xlink:href="#DejaVuSerif-35" x="95.410156"/>
      </g>
     </g>
    </g>
    <g id="xtick_15">
     <g id="line2d_29">
      <path d="M 348.915909 170.6275 
L 348.915909 28.92 
" clip-path="url(#p598f2ee09d)" style="fill: none; stroke: #ffffff; stroke-linecap: round"/>
     </g>
     <g id="line2d_30"/>
     <g id="text_15">
      <!-- 2.0 -->
      <g transform="translate(340.964347 185.225937) scale(0.1 -0.1)">
       <use xlink:href="#DejaVuSerif-32"/>
       <use xlink:href="#DejaVuSerif-2e" x="63.623047"/>
       <use xlink:href="#DejaVuSerif-30" x="95.410156"/>
      </g>
     </g>
    </g>
    <g id="xtick_16">
     <g id="line2d_31">
      <path d="M 368.938636 170.6275 
L 368.938636 28.92 
" clip-path="url(#p598f2ee09d)" style="fill: none; stroke: #ffffff; stroke-linecap: round"/>
     </g>
     <g id="line2d_32"/>
     <g id="text_16">
      <!-- 2.5 -->
      <g transform="translate(360.987074 185.225937) scale(0.1 -0.1)">
       <use xlink:href="#DejaVuSerif-32"/>
       <use xlink:href="#DejaVuSerif-2e" x="63.623047"/>
       <use xlink:href="#DejaVuSerif-35" x="95.410156"/>
      </g>
     </g>
    </g>
    <g id="xtick_17">
     <g id="line2d_33">
      <path d="M 388.961364 170.6275 
L 388.961364 28.92 
" clip-path="url(#p598f2ee09d)" style="fill: none; stroke: #ffffff; stroke-linecap: round"/>
     </g>
     <g id="line2d_34"/>
     <g id="text_17">
      <!-- 3.0 -->
      <g transform="translate(381.009801 185.225937) scale(0.1 -0.1)">
       <use xlink:href="#DejaVuSerif-33"/>
       <use xlink:href="#DejaVuSerif-2e" x="63.623047"/>
       <use xlink:href="#DejaVuSerif-30" x="95.410156"/>
      </g>
     </g>
    </g>
    <g id="xtick_18">
     <g id="line2d_35">
      <path d="M 408.984091 170.6275 
L 408.984091 28.92 
" clip-path="url(#p598f2ee09d)" style="fill: none; stroke: #ffffff; stroke-linecap: round"/>
     </g>
     <g id="line2d_36"/>
     <g id="text_18">
      <!-- 3.5 -->
      <g transform="translate(401.032528 185.225937) scale(0.1 -0.1)">
       <use xlink:href="#DejaVuSerif-33"/>
       <use xlink:href="#DejaVuSerif-2e" x="63.623047"/>
       <use xlink:href="#DejaVuSerif-35" x="95.410156"/>
      </g>
     </g>
    </g>
    <g id="xtick_19">
     <g id="line2d_37">
      <path d="M 429.006818 170.6275 
L 429.006818 28.92 
" clip-path="url(#p598f2ee09d)" style="fill: none; stroke: #ffffff; stroke-linecap: round"/>
     </g>
     <g id="line2d_38"/>
     <g id="text_19">
      <!-- 4.0 -->
      <g transform="translate(421.055256 185.225937) scale(0.1 -0.1)">
       <use xlink:href="#DejaVuSerif-34"/>
       <use xlink:href="#DejaVuSerif-2e" x="63.623047"/>
       <use xlink:href="#DejaVuSerif-30" x="95.410156"/>
      </g>
     </g>
    </g>
    <g id="xtick_20">
     <g id="line2d_39">
      <path d="M 449.029545 170.6275 
L 449.029545 28.92 
" clip-path="url(#p598f2ee09d)" style="fill: none; stroke: #ffffff; stroke-linecap: round"/>
     </g>
     <g id="line2d_40"/>
     <g id="text_20">
      <!-- 4.5 -->
      <g transform="translate(441.077983 185.225937) scale(0.1 -0.1)">
       <use xlink:href="#DejaVuSerif-34"/>
       <use xlink:href="#DejaVuSerif-2e" x="63.623047"/>
       <use xlink:href="#DejaVuSerif-35" x="95.410156"/>
      </g>
     </g>
    </g>
    <g id="xtick_21">
     <g id="line2d_41">
      <path d="M 469.052273 170.6275 
L 469.052273 28.92 
" clip-path="url(#p598f2ee09d)" style="fill: none; stroke: #ffffff; stroke-linecap: round"/>
     </g>
     <g id="line2d_42"/>
     <g id="text_21">
      <!-- 5.0 -->
      <g transform="translate(461.10071 185.225937) scale(0.1 -0.1)">
       <use xlink:href="#DejaVuSerif-35"/>
       <use xlink:href="#DejaVuSerif-2e" x="63.623047"/>
       <use xlink:href="#DejaVuSerif-30" x="95.410156"/>
      </g>
     </g>
    </g>
    <g id="text_22">
     <!-- Steering vector multiplier -->
     <g transform="translate(196.386563 199.663906) scale(0.11 -0.11)">
      <defs>
       <path id="DejaVuSerif-53" d="M 594 225 
L 594 1288 
L 953 1284 
Q 969 753 1261 498 
Q 1553 244 2150 244 
Q 2706 244 2998 464 
Q 3291 684 3291 1106 
Q 3291 1444 3114 1625 
Q 2938 1806 2369 1978 
L 1753 2163 
Q 1084 2366 811 2669 
Q 538 2972 538 3500 
Q 538 4094 959 4422 
Q 1381 4750 2144 4750 
Q 2469 4750 2856 4679 
Q 3244 4609 3681 4475 
L 3681 3481 
L 3328 3481 
Q 3275 3975 2998 4195 
Q 2722 4416 2156 4416 
Q 1663 4416 1405 4214 
Q 1147 4013 1147 3628 
Q 1147 3294 1340 3103 
Q 1534 2913 2163 2725 
L 2741 2553 
Q 3375 2363 3645 2067 
Q 3916 1772 3916 1275 
Q 3916 597 3481 253 
Q 3047 -91 2188 -91 
Q 1803 -91 1404 -12 
Q 1006 66 594 225 
z
" transform="scale(0.015625)"/>
       <path id="DejaVuSerif-74" d="M 691 2988 
L 184 2988 
L 184 3322 
L 691 3322 
L 691 4353 
L 1269 4353 
L 1269 3322 
L 2350 3322 
L 2350 2988 
L 1269 2988 
L 1269 878 
Q 1269 456 1350 337 
Q 1431 219 1650 219 
Q 1875 219 1978 351 
Q 2081 484 2088 781 
L 2522 781 
Q 2497 328 2275 118 
Q 2053 -91 1600 -91 
Q 1103 -91 897 129 
Q 691 350 691 878 
L 691 2988 
z
" transform="scale(0.015625)"/>
       <path id="DejaVuSerif-65" d="M 3469 1600 
L 991 1600 
L 991 1575 
Q 991 903 1244 561 
Q 1497 219 1991 219 
Q 2369 219 2611 417 
Q 2853 616 2950 1006 
L 3413 1006 
Q 3275 459 2904 184 
Q 2534 -91 1931 -91 
Q 1203 -91 761 389 
Q 319 869 319 1663 
Q 319 2450 753 2931 
Q 1188 3413 1894 3413 
Q 2647 3413 3050 2948 
Q 3453 2484 3469 1600 
z
M 2791 1931 
Q 2772 2513 2545 2808 
Q 2319 3103 1894 3103 
Q 1497 3103 1269 2806 
Q 1041 2509 991 1931 
L 2791 1931 
z
" transform="scale(0.015625)"/>
       <path id="DejaVuSerif-72" d="M 3059 3328 
L 3059 2497 
L 2728 2497 
Q 2713 2744 2591 2866 
Q 2469 2988 2234 2988 
Q 1809 2988 1582 2694 
Q 1356 2400 1356 1850 
L 1356 331 
L 2022 331 
L 2022 0 
L 263 0 
L 263 331 
L 781 331 
L 781 2994 
L 231 2994 
L 231 3322 
L 1356 3322 
L 1356 2731 
Q 1525 3078 1790 3245 
Q 2056 3413 2438 3413 
Q 2578 3413 2733 3391 
Q 2888 3369 3059 3328 
z
" transform="scale(0.015625)"/>
       <path id="DejaVuSerif-69" d="M 622 4353 
Q 622 4497 726 4603 
Q 831 4709 978 4709 
Q 1122 4709 1226 4603 
Q 1331 4497 1331 4353 
Q 1331 4206 1228 4103 
Q 1125 4000 978 4000 
Q 831 4000 726 4103 
Q 622 4206 622 4353 
z
M 1356 331 
L 1900 331 
L 1900 0 
L 231 0 
L 231 331 
L 781 331 
L 781 2988 
L 231 2988 
L 231 3322 
L 1356 3322 
L 1356 331 
z
" transform="scale(0.015625)"/>
       <path id="DejaVuSerif-6e" d="M 263 0 
L 263 331 
L 781 331 
L 781 2988 
L 231 2988 
L 231 3322 
L 1356 3322 
L 1356 2731 
Q 1516 3069 1770 3241 
Q 2025 3413 2363 3413 
Q 2913 3413 3172 3097 
Q 3431 2781 3431 2113 
L 3431 331 
L 3944 331 
L 3944 0 
L 2356 0 
L 2356 331 
L 2853 331 
L 2853 1931 
Q 2853 2541 2703 2767 
Q 2553 2994 2175 2994 
Q 1775 2994 1565 2701 
Q 1356 2409 1356 1850 
L 1356 331 
L 1856 331 
L 1856 0 
L 263 0 
z
" transform="scale(0.015625)"/>
       <path id="DejaVuSerif-67" d="M 3359 2988 
L 3359 72 
Q 3359 -644 2965 -1033 
Q 2572 -1422 1844 -1422 
Q 1516 -1422 1216 -1362 
Q 916 -1303 641 -1184 
L 641 -488 
L 941 -488 
Q 997 -813 1206 -963 
Q 1416 -1113 1806 -1113 
Q 2313 -1113 2548 -827 
Q 2784 -541 2784 72 
L 2784 519 
Q 2616 206 2355 57 
Q 2094 -91 1709 -91 
Q 1097 -91 708 395 
Q 319 881 319 1663 
Q 319 2444 706 2928 
Q 1094 3413 1709 3413 
Q 2094 3413 2355 3264 
Q 2616 3116 2784 2803 
L 2784 3322 
L 3909 3322 
L 3909 2988 
L 3359 2988 
z
M 2784 1825 
Q 2784 2422 2554 2737 
Q 2325 3053 1888 3053 
Q 1444 3053 1217 2703 
Q 991 2353 991 1663 
Q 991 975 1217 622 
Q 1444 269 1888 269 
Q 2325 269 2554 583 
Q 2784 897 2784 1497 
L 2784 1825 
z
" transform="scale(0.015625)"/>
       <path id="DejaVuSerif-20" transform="scale(0.015625)"/>
       <path id="DejaVuSerif-76" d="M 1581 0 
L 359 2988 
L -19 2988 
L -19 3322 
L 1509 3322 
L 1509 2988 
L 978 2988 
L 1913 703 
L 2847 2988 
L 2350 2988 
L 2350 3322 
L 3597 3322 
L 3597 2988 
L 3225 2988 
L 2003 0 
L 1581 0 
z
" transform="scale(0.015625)"/>
       <path id="DejaVuSerif-63" d="M 3291 997 
Q 3169 466 2822 187 
Q 2475 -91 1925 -91 
Q 1200 -91 759 389 
Q 319 869 319 1663 
Q 319 2459 759 2936 
Q 1200 3413 1925 3413 
Q 2241 3413 2553 3339 
Q 2866 3266 3181 3116 
L 3181 2266 
L 2847 2266 
Q 2781 2703 2561 2903 
Q 2341 3103 1931 3103 
Q 1466 3103 1228 2742 
Q 991 2381 991 1663 
Q 991 944 1227 581 
Q 1463 219 1931 219 
Q 2303 219 2525 412 
Q 2747 606 2828 997 
L 3291 997 
z
" transform="scale(0.015625)"/>
       <path id="DejaVuSerif-6f" d="M 1925 219 
Q 2388 219 2623 584 
Q 2859 950 2859 1663 
Q 2859 2375 2623 2739 
Q 2388 3103 1925 3103 
Q 1463 3103 1227 2739 
Q 991 2375 991 1663 
Q 991 950 1228 584 
Q 1466 219 1925 219 
z
M 1925 -91 
Q 1200 -91 759 389 
Q 319 869 319 1663 
Q 319 2456 758 2934 
Q 1197 3413 1925 3413 
Q 2653 3413 3092 2934 
Q 3531 2456 3531 1663 
Q 3531 869 3092 389 
Q 2653 -91 1925 -91 
z
" transform="scale(0.015625)"/>
       <path id="DejaVuSerif-6d" d="M 3316 2675 
Q 3481 3041 3739 3227 
Q 3997 3413 4341 3413 
Q 4863 3413 5119 3089 
Q 5375 2766 5375 2113 
L 5375 331 
L 5894 331 
L 5894 0 
L 4300 0 
L 4300 331 
L 4800 331 
L 4800 2047 
Q 4800 2556 4650 2772 
Q 4500 2988 4153 2988 
Q 3769 2988 3567 2697 
Q 3366 2406 3366 1850 
L 3366 331 
L 3866 331 
L 3866 0 
L 2291 0 
L 2291 331 
L 2791 331 
L 2791 2069 
Q 2791 2566 2641 2777 
Q 2491 2988 2144 2988 
Q 1759 2988 1557 2697 
Q 1356 2406 1356 1850 
L 1356 331 
L 1856 331 
L 1856 0 
L 263 0 
L 263 331 
L 781 331 
L 781 2994 
L 231 2994 
L 231 3322 
L 1356 3322 
L 1356 2731 
Q 1516 3063 1762 3238 
Q 2009 3413 2322 3413 
Q 2709 3413 2968 3220 
Q 3228 3028 3316 2675 
z
" transform="scale(0.015625)"/>
       <path id="DejaVuSerif-75" d="M 2266 3322 
L 3341 3322 
L 3341 331 
L 3884 331 
L 3884 0 
L 2766 0 
L 2766 588 
Q 2606 256 2353 82 
Q 2100 -91 1766 -91 
Q 1213 -91 952 223 
Q 691 538 691 1209 
L 691 2988 
L 172 2988 
L 172 3322 
L 1269 3322 
L 1269 1388 
Q 1269 781 1417 556 
Q 1566 331 1947 331 
Q 2347 331 2556 625 
Q 2766 919 2766 1478 
L 2766 2988 
L 2266 2988 
L 2266 3322 
z
" transform="scale(0.015625)"/>
       <path id="DejaVuSerif-6c" d="M 1313 331 
L 1856 331 
L 1856 0 
L 184 0 
L 184 331 
L 738 331 
L 738 4531 
L 184 4531 
L 184 4863 
L 1313 4863 
L 1313 331 
z
" transform="scale(0.015625)"/>
       <path id="DejaVuSerif-70" d="M 1313 1825 
L 1313 1497 
Q 1313 897 1542 583 
Q 1772 269 2209 269 
Q 2650 269 2876 622 
Q 3103 975 3103 1663 
Q 3103 2353 2876 2703 
Q 2650 3053 2209 3053 
Q 1772 3053 1542 2737 
Q 1313 2422 1313 1825 
z
M 738 2988 
L 184 2988 
L 184 3322 
L 1313 3322 
L 1313 2803 
Q 1481 3116 1742 3264 
Q 2003 3413 2388 3413 
Q 3000 3413 3387 2928 
Q 3775 2444 3775 1663 
Q 3775 881 3387 395 
Q 3000 -91 2388 -91 
Q 2003 -91 1742 57 
Q 1481 206 1313 519 
L 1313 -997 
L 1856 -997 
L 1856 -1331 
L 184 -1331 
L 184 -997 
L 738 -997 
L 738 2988 
z
" transform="scale(0.015625)"/>
      </defs>
      <use xlink:href="#DejaVuSerif-53"/>
      <use xlink:href="#DejaVuSerif-74" x="68.505859"/>
      <use xlink:href="#DejaVuSerif-65" x="108.691406"/>
      <use xlink:href="#DejaVuSerif-65" x="167.871094"/>
      <use xlink:href="#DejaVuSerif-72" x="227.050781"/>
      <use xlink:href="#DejaVuSerif-69" x="274.853516"/>
      <use xlink:href="#DejaVuSerif-6e" x="306.835938"/>
      <use xlink:href="#DejaVuSerif-67" x="371.240234"/>
      <use xlink:href="#DejaVuSerif-20" x="435.253906"/>
      <use xlink:href="#DejaVuSerif-76" x="467.041016"/>
      <use xlink:href="#DejaVuSerif-65" x="523.535156"/>
      <use xlink:href="#DejaVuSerif-63" x="582.714844"/>
      <use xlink:href="#DejaVuSerif-74" x="638.720703"/>
      <use xlink:href="#DejaVuSerif-6f" x="678.90625"/>
      <use xlink:href="#DejaVuSerif-72" x="739.111328"/>
      <use xlink:href="#DejaVuSerif-20" x="786.914062"/>
      <use xlink:href="#DejaVuSerif-6d" x="818.701172"/>
      <use xlink:href="#DejaVuSerif-75" x="913.525391"/>
      <use xlink:href="#DejaVuSerif-6c" x="977.929688"/>
      <use xlink:href="#DejaVuSerif-74" x="1009.912109"/>
      <use xlink:href="#DejaVuSerif-69" x="1050.097656"/>
      <use xlink:href="#DejaVuSerif-70" x="1082.080078"/>
      <use xlink:href="#DejaVuSerif-6c" x="1146.09375"/>
      <use xlink:href="#DejaVuSerif-69" x="1178.076172"/>
      <use xlink:href="#DejaVuSerif-65" x="1210.058594"/>
      <use xlink:href="#DejaVuSerif-72" x="1269.238281"/>
     </g>
    </g>
   </g>
   <g id="matplotlib.axis_2">
    <g id="ytick_1">
     <g id="line2d_43">
      <path d="M 48.575 149.212062 
L 489.075 149.212062 
" clip-path="url(#p598f2ee09d)" style="fill: none; stroke: #ffffff; stroke-linecap: round"/>
     </g>
     <g id="line2d_44"/>
     <g id="text_23">
      <!-- 40 -->
      <g transform="translate(28.85 153.011281) scale(0.1 -0.1)">
       <use xlink:href="#DejaVuSerif-34"/>
       <use xlink:href="#DejaVuSerif-30" x="63.623047"/>
      </g>
     </g>
    </g>
    <g id="ytick_2">
     <g id="line2d_45">
      <path d="M 48.575 122.356667 
L 489.075 122.356667 
" clip-path="url(#p598f2ee09d)" style="fill: none; stroke: #ffffff; stroke-linecap: round"/>
     </g>
     <g id="line2d_46"/>
     <g id="text_24">
      <!-- 50 -->
      <g transform="translate(28.85 126.155886) scale(0.1 -0.1)">
       <use xlink:href="#DejaVuSerif-35"/>
       <use xlink:href="#DejaVuSerif-30" x="63.623047"/>
      </g>
     </g>
    </g>
    <g id="ytick_3">
     <g id="line2d_47">
      <path d="M 48.575 95.501272 
L 489.075 95.501272 
" clip-path="url(#p598f2ee09d)" style="fill: none; stroke: #ffffff; stroke-linecap: round"/>
     </g>
     <g id="line2d_48"/>
     <g id="text_25">
      <!-- 60 -->
      <g transform="translate(28.85 99.300491) scale(0.1 -0.1)">
       <defs>
        <path id="DejaVuSerif-36" d="M 2094 219 
Q 2534 219 2771 542 
Q 3009 866 3009 1472 
Q 3009 2078 2771 2401 
Q 2534 2725 2094 2725 
Q 1647 2725 1412 2412 
Q 1178 2100 1178 1509 
Q 1178 888 1415 553 
Q 1653 219 2094 219 
z
M 1075 2569 
Q 1288 2803 1556 2918 
Q 1825 3034 2163 3034 
Q 2859 3034 3264 2615 
Q 3669 2197 3669 1472 
Q 3669 763 3233 336 
Q 2797 -91 2069 -91 
Q 1278 -91 853 498 
Q 428 1088 428 2181 
Q 428 3406 931 4078 
Q 1434 4750 2350 4750 
Q 2597 4750 2869 4703 
Q 3141 4656 3425 4563 
L 3425 3794 
L 3072 3794 
Q 3034 4109 2831 4275 
Q 2628 4441 2284 4441 
Q 1678 4441 1381 3981 
Q 1084 3522 1075 2569 
z
" transform="scale(0.015625)"/>
       </defs>
       <use xlink:href="#DejaVuSerif-36"/>
       <use xlink:href="#DejaVuSerif-30" x="63.623047"/>
      </g>
     </g>
    </g>
    <g id="ytick_4">
     <g id="line2d_49">
      <path d="M 48.575 68.645877 
L 489.075 68.645877 
" clip-path="url(#p598f2ee09d)" style="fill: none; stroke: #ffffff; stroke-linecap: round"/>
     </g>
     <g id="line2d_50"/>
     <g id="text_26">
      <!-- 70 -->
      <g transform="translate(28.85 72.445096) scale(0.1 -0.1)">
       <defs>
        <path id="DejaVuSerif-37" d="M 3609 4347 
L 1784 0 
L 1319 0 
L 3059 4153 
L 903 4153 
L 903 3578 
L 538 3578 
L 538 4666 
L 3609 4666 
L 3609 4347 
z
" transform="scale(0.015625)"/>
       </defs>
       <use xlink:href="#DejaVuSerif-37"/>
       <use xlink:href="#DejaVuSerif-30" x="63.623047"/>
      </g>
     </g>
    </g>
    <g id="ytick_5">
     <g id="line2d_51">
      <path d="M 48.575 41.790482 
L 489.075 41.790482 
" clip-path="url(#p598f2ee09d)" style="fill: none; stroke: #ffffff; stroke-linecap: round"/>
     </g>
     <g id="line2d_52"/>
     <g id="text_27">
      <!-- 80 -->
      <g transform="translate(28.85 45.589701) scale(0.1 -0.1)">
       <defs>
        <path id="DejaVuSerif-38" d="M 2981 1275 
Q 2981 1775 2732 2051 
Q 2484 2328 2034 2328 
Q 1584 2328 1336 2051 
Q 1088 1775 1088 1275 
Q 1088 772 1336 495 
Q 1584 219 2034 219 
Q 2484 219 2732 495 
Q 2981 772 2981 1275 
z
M 2853 3541 
Q 2853 3966 2637 4203 
Q 2422 4441 2034 4441 
Q 1650 4441 1433 4203 
Q 1216 3966 1216 3541 
Q 1216 3113 1433 2875 
Q 1650 2638 2034 2638 
Q 2422 2638 2637 2875 
Q 2853 3113 2853 3541 
z
M 2516 2484 
Q 3047 2413 3344 2092 
Q 3641 1772 3641 1275 
Q 3641 619 3225 264 
Q 2809 -91 2034 -91 
Q 1263 -91 845 264 
Q 428 619 428 1275 
Q 428 1772 725 2092 
Q 1022 2413 1556 2484 
Q 1084 2569 832 2842 
Q 581 3116 581 3541 
Q 581 4103 968 4426 
Q 1356 4750 2034 4750 
Q 2713 4750 3100 4426 
Q 3488 4103 3488 3541 
Q 3488 3116 3236 2842 
Q 2984 2569 2516 2484 
z
" transform="scale(0.015625)"/>
       </defs>
       <use xlink:href="#DejaVuSerif-38"/>
       <use xlink:href="#DejaVuSerif-30" x="63.623047"/>
      </g>
     </g>
    </g>
    <g id="text_28">
     <!-- p(answer matching behavior) (%) -->
     <g transform="translate(22.405938 193.137969) rotate(-90) scale(0.11 -0.11)">
      <defs>
       <path id="DejaVuSerif-28" d="M 2041 -997 
Q 1281 -656 893 83 
Q 506 822 506 1931 
Q 506 3044 893 3783 
Q 1281 4522 2041 4863 
L 2041 4556 
Q 1559 4225 1350 3623 
Q 1141 3022 1141 1931 
Q 1141 844 1350 242 
Q 1559 -359 2041 -691 
L 2041 -997 
z
" transform="scale(0.015625)"/>
       <path id="DejaVuSerif-61" d="M 2547 1044 
L 2547 1747 
L 1806 1747 
Q 1378 1747 1168 1562 
Q 959 1378 959 997 
Q 959 650 1171 447 
Q 1384 244 1747 244 
Q 2106 244 2326 466 
Q 2547 688 2547 1044 
z
M 3122 2075 
L 3122 331 
L 3634 331 
L 3634 0 
L 2547 0 
L 2547 359 
Q 2356 128 2106 18 
Q 1856 -91 1522 -91 
Q 969 -91 644 203 
Q 319 497 319 997 
Q 319 1513 691 1797 
Q 1063 2081 1741 2081 
L 2547 2081 
L 2547 2309 
Q 2547 2688 2317 2895 
Q 2088 3103 1672 3103 
Q 1328 3103 1125 2947 
Q 922 2791 872 2484 
L 575 2484 
L 575 3156 
Q 875 3284 1158 3348 
Q 1441 3413 1709 3413 
Q 2400 3413 2761 3070 
Q 3122 2728 3122 2075 
z
" transform="scale(0.015625)"/>
       <path id="DejaVuSerif-73" d="M 359 184 
L 359 959 
L 691 959 
Q 703 588 923 403 
Q 1144 219 1575 219 
Q 1963 219 2166 364 
Q 2369 509 2369 788 
Q 2369 1006 2220 1140 
Q 2072 1275 1594 1428 
L 1178 1569 
Q 750 1706 558 1912 
Q 366 2119 366 2438 
Q 366 2894 700 3153 
Q 1034 3413 1625 3413 
Q 1888 3413 2178 3344 
Q 2469 3275 2778 3144 
L 2778 2419 
L 2447 2419 
Q 2434 2741 2221 2922 
Q 2009 3103 1644 3103 
Q 1281 3103 1095 2975 
Q 909 2847 909 2591 
Q 909 2381 1050 2254 
Q 1191 2128 1613 1997 
L 2069 1856 
Q 2541 1709 2748 1489 
Q 2956 1269 2956 922 
Q 2956 450 2595 179 
Q 2234 -91 1600 -91 
Q 1278 -91 972 -22 
Q 666 47 359 184 
z
" transform="scale(0.015625)"/>
       <path id="DejaVuSerif-77" d="M 3072 3322 
L 3922 728 
L 4672 2988 
L 4191 2988 
L 4191 3322 
L 5394 3322 
L 5394 2988 
L 5025 2988 
L 4038 0 
L 3559 0 
L 2741 2484 
L 1919 0 
L 1459 0 
L 475 2988 
L 103 2988 
L 103 3322 
L 1606 3322 
L 1606 2988 
L 1069 2988 
L 1813 728 
L 2669 3322 
L 3072 3322 
z
" transform="scale(0.015625)"/>
       <path id="DejaVuSerif-68" d="M 263 0 
L 263 331 
L 781 331 
L 781 4531 
L 231 4531 
L 231 4863 
L 1356 4863 
L 1356 2731 
Q 1516 3069 1770 3241 
Q 2025 3413 2363 3413 
Q 2913 3413 3172 3097 
Q 3431 2781 3431 2113 
L 3431 331 
L 3944 331 
L 3944 0 
L 2356 0 
L 2356 331 
L 2853 331 
L 2853 1931 
Q 2853 2541 2704 2764 
Q 2556 2988 2175 2988 
Q 1775 2988 1565 2697 
Q 1356 2406 1356 1850 
L 1356 331 
L 1856 331 
L 1856 0 
L 263 0 
z
" transform="scale(0.015625)"/>
       <path id="DejaVuSerif-62" d="M 738 331 
L 738 4531 
L 184 4531 
L 184 4863 
L 1313 4863 
L 1313 2803 
Q 1481 3116 1742 3264 
Q 2003 3413 2388 3413 
Q 3000 3413 3387 2928 
Q 3775 2444 3775 1663 
Q 3775 881 3387 395 
Q 3000 -91 2388 -91 
Q 2003 -91 1742 57 
Q 1481 206 1313 519 
L 1313 0 
L 184 0 
L 184 331 
L 738 331 
z
M 1313 1497 
Q 1313 897 1542 583 
Q 1772 269 2209 269 
Q 2650 269 2876 622 
Q 3103 975 3103 1663 
Q 3103 2353 2876 2703 
Q 2650 3053 2209 3053 
Q 1772 3053 1542 2737 
Q 1313 2422 1313 1825 
L 1313 1497 
z
" transform="scale(0.015625)"/>
       <path id="DejaVuSerif-29" d="M 453 -997 
L 453 -691 
Q 934 -359 1145 242 
Q 1356 844 1356 1931 
Q 1356 3022 1145 3623 
Q 934 4225 453 4556 
L 453 4863 
Q 1216 4522 1603 3783 
Q 1991 3044 1991 1931 
Q 1991 822 1603 83 
Q 1216 -656 453 -997 
z
" transform="scale(0.015625)"/>
       <path id="DejaVuSerif-25" d="M 1434 4459 
Q 1159 4459 1004 4200 
Q 850 3941 850 3475 
Q 850 3016 1008 2753 
Q 1166 2491 1434 2491 
Q 1700 2491 1854 2752 
Q 2009 3013 2009 3475 
Q 2009 3938 1854 4198 
Q 1700 4459 1434 4459 
z
M 4653 2169 
Q 4381 2169 4226 1906 
Q 4072 1644 4072 1178 
Q 4072 719 4228 458 
Q 4384 197 4653 197 
Q 4922 197 5075 458 
Q 5228 719 5228 1178 
Q 5228 1641 5073 1905 
Q 4919 2169 4653 2169 
z
M 4653 2450 
Q 5147 2450 5437 2106 
Q 5728 1763 5728 1178 
Q 5728 594 5436 251 
Q 5144 -91 4653 -91 
Q 4153 -91 3862 251 
Q 3572 594 3572 1178 
Q 3572 1766 3864 2108 
Q 4156 2450 4653 2450 
z
M 4263 4750 
L 4738 4750 
L 1819 -91 
L 1344 -91 
L 4263 4750 
z
M 1428 4750 
Q 1922 4750 2215 4408 
Q 2509 4066 2509 3481 
Q 2509 2891 2217 2550 
Q 1925 2209 1428 2209 
Q 931 2209 642 2551 
Q 353 2894 353 3481 
Q 353 4063 643 4406 
Q 934 4750 1428 4750 
z
" transform="scale(0.015625)"/>
      </defs>
      <use xlink:href="#DejaVuSerif-70"/>
      <use xlink:href="#DejaVuSerif-28" x="64.013672"/>
      <use xlink:href="#DejaVuSerif-61" x="103.027344"/>
      <use xlink:href="#DejaVuSerif-6e" x="162.646484"/>
      <use xlink:href="#DejaVuSerif-73" x="227.050781"/>
      <use xlink:href="#DejaVuSerif-77" x="278.369141"/>
      <use xlink:href="#DejaVuSerif-65" x="363.964844"/>
      <use xlink:href="#DejaVuSerif-72" x="423.144531"/>
      <use xlink:href="#DejaVuSerif-20" x="470.947266"/>
      <use xlink:href="#DejaVuSerif-6d" x="502.734375"/>
      <use xlink:href="#DejaVuSerif-61" x="597.558594"/>
      <use xlink:href="#DejaVuSerif-74" x="657.177734"/>
      <use xlink:href="#DejaVuSerif-63" x="697.363281"/>
      <use xlink:href="#DejaVuSerif-68" x="753.369141"/>
      <use xlink:href="#DejaVuSerif-69" x="817.773438"/>
      <use xlink:href="#DejaVuSerif-6e" x="849.755859"/>
      <use xlink:href="#DejaVuSerif-67" x="914.160156"/>
      <use xlink:href="#DejaVuSerif-20" x="978.173828"/>
      <use xlink:href="#DejaVuSerif-62" x="1009.960938"/>
      <use xlink:href="#DejaVuSerif-65" x="1073.974609"/>
      <use xlink:href="#DejaVuSerif-68" x="1133.154297"/>
      <use xlink:href="#DejaVuSerif-61" x="1197.558594"/>
      <use xlink:href="#DejaVuSerif-76" x="1257.177734"/>
      <use xlink:href="#DejaVuSerif-69" x="1313.671875"/>
      <use xlink:href="#DejaVuSerif-6f" x="1345.654297"/>
      <use xlink:href="#DejaVuSerif-72" x="1405.859375"/>
      <use xlink:href="#DejaVuSerif-29" x="1453.662109"/>
      <use xlink:href="#DejaVuSerif-20" x="1492.675781"/>
      <use xlink:href="#DejaVuSerif-28" x="1524.462891"/>
      <use xlink:href="#DejaVuSerif-25" x="1563.476562"/>
      <use xlink:href="#DejaVuSerif-29" x="1658.496094"/>
     </g>
    </g>
   </g>
   <g id="line2d_53">
    <path d="M 68.597727 133.764364 
L 88.620455 132.367102 
L 108.643182 130.302635 
L 128.665909 128.777053 
L 148.688636 128.265274 
L 168.711364 128.474098 
L 188.734091 128.901274 
L 208.756818 129.064757 
L 228.779545 126.473571 
L 248.802273 118.822476 
L 268.825 109.627895 
L 288.847727 105.047559 
L 308.870455 105.896387 
L 328.893182 109.406819 
L 348.915909 112.934008 
L 368.938636 116.664476 
L 388.961364 121.939809 
L 408.984091 135.25966 
L 429.006818 131.985631 
L 449.029545 137.937475 
L 469.052273 129.827744 
" clip-path="url(#p598f2ee09d)" style="fill: none; stroke: #377eb8; stroke-width: 3; stroke-linecap: round"/>
    <defs>
     <path id="m685297c5e9" d="M 0 5 
C 1.326016 5 2.597899 4.473168 3.535534 3.535534 
C 4.473168 2.597899 5 1.326016 5 0 
C 5 -1.326016 4.473168 -2.597899 3.535534 -3.535534 
C 2.597899 -4.473168 1.326016 -5 0 -5 
C -1.326016 -5 -2.597899 -4.473168 -3.535534 -3.535534 
C -4.473168 -2.597899 -5 -1.326016 -5 0 
C -5 1.326016 -4.473168 2.597899 -3.535534 3.535534 
C -2.597899 4.473168 -1.326016 5 0 5 
z
"/>
    </defs>
    <g clip-path="url(#p598f2ee09d)">
     <use xlink:href="#m685297c5e9" x="68.597727" y="133.764364" style="fill: #377eb8"/>
     <use xlink:href="#m685297c5e9" x="88.620455" y="132.367102" style="fill: #377eb8"/>
     <use xlink:href="#m685297c5e9" x="108.643182" y="130.302635" style="fill: #377eb8"/>
     <use xlink:href="#m685297c5e9" x="128.665909" y="128.777053" style="fill: #377eb8"/>
     <use xlink:href="#m685297c5e9" x="148.688636" y="128.265274" style="fill: #377eb8"/>
     <use xlink:href="#m685297c5e9" x="168.711364" y="128.474098" style="fill: #377eb8"/>
     <use xlink:href="#m685297c5e9" x="188.734091" y="128.901274" style="fill: #377eb8"/>
     <use xlink:href="#m685297c5e9" x="208.756818" y="129.064757" style="fill: #377eb8"/>
     <use xlink:href="#m685297c5e9" x="228.779545" y="126.473571" style="fill: #377eb8"/>
     <use xlink:href="#m685297c5e9" x="248.802273" y="118.822476" style="fill: #377eb8"/>
     <use xlink:href="#m685297c5e9" x="268.825" y="109.627895" style="fill: #377eb8"/>
     <use xlink:href="#m685297c5e9" x="288.847727" y="105.047559" style="fill: #377eb8"/>
     <use xlink:href="#m685297c5e9" x="308.870455" y="105.896387" style="fill: #377eb8"/>
     <use xlink:href="#m685297c5e9" x="328.893182" y="109.406819" style="fill: #377eb8"/>
     <use xlink:href="#m685297c5e9" x="348.915909" y="112.934008" style="fill: #377eb8"/>
     <use xlink:href="#m685297c5e9" x="368.938636" y="116.664476" style="fill: #377eb8"/>
     <use xlink:href="#m685297c5e9" x="388.961364" y="121.939809" style="fill: #377eb8"/>
     <use xlink:href="#m685297c5e9" x="408.984091" y="135.25966" style="fill: #377eb8"/>
     <use xlink:href="#m685297c5e9" x="429.006818" y="131.985631" style="fill: #377eb8"/>
     <use xlink:href="#m685297c5e9" x="449.029545" y="137.937475" style="fill: #377eb8"/>
     <use xlink:href="#m685297c5e9" x="469.052273" y="129.827744" style="fill: #377eb8"/>
    </g>
   </g>
   <g id="line2d_54">
    <path d="M 68.597727 119.384045 
L 88.620455 114.50127 
L 108.643182 109.314387 
L 128.665909 109.200815 
L 148.688636 118.960355 
L 168.711364 125.323708 
L 188.734091 128.712685 
L 208.756818 133.106667 
L 228.779545 133.09996 
L 248.802273 120.230588 
L 268.825 98.947056 
L 288.847727 89.178207 
L 308.870455 98.345428 
L 328.893182 117.316295 
L 348.915909 141.911088 
L 368.938636 130.876152 
L 388.961364 130.988005 
L 408.984091 132.096187 
L 429.006818 134.749758 
L 449.029545 135.459841 
L 469.052273 135.529008 
" clip-path="url(#p598f2ee09d)" style="fill: none; stroke: #ff7f00; stroke-width: 3; stroke-linecap: round"/>
    <defs>
     <path id="mdbebe80c78" d="M 0 5 
C 1.326016 5 2.597899 4.473168 3.535534 3.535534 
C 4.473168 2.597899 5 1.326016 5 0 
C 5 -1.326016 4.473168 -2.597899 3.535534 -3.535534 
C 2.597899 -4.473168 1.326016 -5 0 -5 
C -1.326016 -5 -2.597899 -4.473168 -3.535534 -3.535534 
C -4.473168 -2.597899 -5 -1.326016 -5 0 
C -5 1.326016 -4.473168 2.597899 -3.535534 3.535534 
C -2.597899 4.473168 -1.326016 5 0 5 
z
"/>
    </defs>
    <g clip-path="url(#p598f2ee09d)">
     <use xlink:href="#mdbebe80c78" x="68.597727" y="119.384045" style="fill: #ff7f00"/>
     <use xlink:href="#mdbebe80c78" x="88.620455" y="114.50127" style="fill: #ff7f00"/>
     <use xlink:href="#mdbebe80c78" x="108.643182" y="109.314387" style="fill: #ff7f00"/>
     <use xlink:href="#mdbebe80c78" x="128.665909" y="109.200815" style="fill: #ff7f00"/>
     <use xlink:href="#mdbebe80c78" x="148.688636" y="118.960355" style="fill: #ff7f00"/>
     <use xlink:href="#mdbebe80c78" x="168.711364" y="125.323708" style="fill: #ff7f00"/>
     <use xlink:href="#mdbebe80c78" x="188.734091" y="128.712685" style="fill: #ff7f00"/>
     <use xlink:href="#mdbebe80c78" x="208.756818" y="133.106667" style="fill: #ff7f00"/>
     <use xlink:href="#mdbebe80c78" x="228.779545" y="133.09996" style="fill: #ff7f00"/>
     <use xlink:href="#mdbebe80c78" x="248.802273" y="120.230588" style="fill: #ff7f00"/>
     <use xlink:href="#mdbebe80c78" x="268.825" y="98.947056" style="fill: #ff7f00"/>
     <use xlink:href="#mdbebe80c78" x="288.847727" y="89.178207" style="fill: #ff7f00"/>
     <use xlink:href="#mdbebe80c78" x="308.870455" y="98.345428" style="fill: #ff7f00"/>
     <use xlink:href="#mdbebe80c78" x="328.893182" y="117.316295" style="fill: #ff7f00"/>
     <use xlink:href="#mdbebe80c78" x="348.915909" y="141.911088" style="fill: #ff7f00"/>
     <use xlink:href="#mdbebe80c78" x="368.938636" y="130.876152" style="fill: #ff7f00"/>
     <use xlink:href="#mdbebe80c78" x="388.961364" y="130.988005" style="fill: #ff7f00"/>
     <use xlink:href="#mdbebe80c78" x="408.984091" y="132.096187" style="fill: #ff7f00"/>
     <use xlink:href="#mdbebe80c78" x="429.006818" y="134.749758" style="fill: #ff7f00"/>
     <use xlink:href="#mdbebe80c78" x="449.029545" y="135.459841" style="fill: #ff7f00"/>
     <use xlink:href="#mdbebe80c78" x="469.052273" y="135.529008" style="fill: #ff7f00"/>
    </g>
   </g>
   <g id="line2d_55">
    <path d="M 68.597727 116.745177 
L 88.620455 114.08878 
L 108.643182 112.367886 
L 128.665909 110.850373 
L 148.688636 109.137379 
L 168.711364 105.659314 
L 188.734091 102.801446 
L 208.756818 106.248083 
L 228.779545 114.312586 
L 248.802273 94.557774 
L 268.825 57.829921 
L 288.847727 36.987165 
L 308.870455 35.36125 
L 328.893182 50.758121 
L 348.915909 82.873137 
L 368.938636 113.61302 
L 388.961364 114.140874 
L 408.984091 105.9753 
L 429.006818 120.980758 
L 449.029545 130.798465 
L 469.052273 136.913913 
" clip-path="url(#p598f2ee09d)" style="fill: none; stroke: #4daf4a; stroke-width: 3; stroke-linecap: round"/>
    <defs>
     <path id="m094f3ea6ed" d="M 0 5 
C 1.326016 5 2.597899 4.473168 3.535534 3.535534 
C 4.473168 2.597899 5 1.326016 5 0 
C 5 -1.326016 4.473168 -2.597899 3.535534 -3.535534 
C 2.597899 -4.473168 1.326016 -5 0 -5 
C -1.326016 -5 -2.597899 -4.473168 -3.535534 -3.535534 
C -4.473168 -2.597899 -5 -1.326016 -5 0 
C -5 1.326016 -4.473168 2.597899 -3.535534 3.535534 
C -2.597899 4.473168 -1.326016 5 0 5 
z
"/>
    </defs>
    <g clip-path="url(#p598f2ee09d)">
     <use xlink:href="#m094f3ea6ed" x="68.597727" y="116.745177" style="fill: #4daf4a"/>
     <use xlink:href="#m094f3ea6ed" x="88.620455" y="114.08878" style="fill: #4daf4a"/>
     <use xlink:href="#m094f3ea6ed" x="108.643182" y="112.367886" style="fill: #4daf4a"/>
     <use xlink:href="#m094f3ea6ed" x="128.665909" y="110.850373" style="fill: #4daf4a"/>
     <use xlink:href="#m094f3ea6ed" x="148.688636" y="109.137379" style="fill: #4daf4a"/>
     <use xlink:href="#m094f3ea6ed" x="168.711364" y="105.659314" style="fill: #4daf4a"/>
     <use xlink:href="#m094f3ea6ed" x="188.734091" y="102.801446" style="fill: #4daf4a"/>
     <use xlink:href="#m094f3ea6ed" x="208.756818" y="106.248083" style="fill: #4daf4a"/>
     <use xlink:href="#m094f3ea6ed" x="228.779545" y="114.312586" style="fill: #4daf4a"/>
     <use xlink:href="#m094f3ea6ed" x="248.802273" y="94.557774" style="fill: #4daf4a"/>
     <use xlink:href="#m094f3ea6ed" x="268.825" y="57.829921" style="fill: #4daf4a"/>
     <use xlink:href="#m094f3ea6ed" x="288.847727" y="36.987165" style="fill: #4daf4a"/>
     <use xlink:href="#m094f3ea6ed" x="308.870455" y="35.36125" style="fill: #4daf4a"/>
     <use xlink:href="#m094f3ea6ed" x="328.893182" y="50.758121" style="fill: #4daf4a"/>
     <use xlink:href="#m094f3ea6ed" x="348.915909" y="82.873137" style="fill: #4daf4a"/>
     <use xlink:href="#m094f3ea6ed" x="368.938636" y="113.61302" style="fill: #4daf4a"/>
     <use xlink:href="#m094f3ea6ed" x="388.961364" y="114.140874" style="fill: #4daf4a"/>
     <use xlink:href="#m094f3ea6ed" x="408.984091" y="105.9753" style="fill: #4daf4a"/>
     <use xlink:href="#m094f3ea6ed" x="429.006818" y="120.980758" style="fill: #4daf4a"/>
     <use xlink:href="#m094f3ea6ed" x="449.029545" y="130.798465" style="fill: #4daf4a"/>
     <use xlink:href="#m094f3ea6ed" x="469.052273" y="136.913913" style="fill: #4daf4a"/>
    </g>
   </g>
   <g id="line2d_56">
    <path d="M 68.597727 120.607342 
L 88.620455 120.928046 
L 108.643182 122.352412 
L 128.665909 124.651935 
L 148.688636 126.346848 
L 168.711364 127.072874 
L 188.734091 127.607001 
L 208.756818 127.926251 
L 228.779545 127.061327 
L 248.802273 124.136726 
L 268.825 119.023506 
L 288.847727 113.33903 
L 308.870455 109.196872 
L 328.893182 107.599307 
L 348.915909 107.898146 
L 368.938636 108.851022 
L 388.961364 110.252018 
L 408.984091 111.897876 
L 429.006818 113.397682 
L 449.029545 114.542887 
L 469.052273 115.533446 
" clip-path="url(#p598f2ee09d)" style="fill: none; stroke: #f781bf; stroke-width: 3; stroke-linecap: round"/>
    <defs>
     <path id="m320e83c605" d="M 0 5 
C 1.326016 5 2.597899 4.473168 3.535534 3.535534 
C 4.473168 2.597899 5 1.326016 5 0 
C 5 -1.326016 4.473168 -2.597899 3.535534 -3.535534 
C 2.597899 -4.473168 1.326016 -5 0 -5 
C -1.326016 -5 -2.597899 -4.473168 -3.535534 -3.535534 
C -4.473168 -2.597899 -5 -1.326016 -5 0 
C -5 1.326016 -4.473168 2.597899 -3.535534 3.535534 
C -2.597899 4.473168 -1.326016 5 0 5 
z
"/>
    </defs>
    <g clip-path="url(#p598f2ee09d)">
     <use xlink:href="#m320e83c605" x="68.597727" y="120.607342" style="fill: #f781bf"/>
     <use xlink:href="#m320e83c605" x="88.620455" y="120.928046" style="fill: #f781bf"/>
     <use xlink:href="#m320e83c605" x="108.643182" y="122.352412" style="fill: #f781bf"/>
     <use xlink:href="#m320e83c605" x="128.665909" y="124.651935" style="fill: #f781bf"/>
     <use xlink:href="#m320e83c605" x="148.688636" y="126.346848" style="fill: #f781bf"/>
     <use xlink:href="#m320e83c605" x="168.711364" y="127.072874" style="fill: #f781bf"/>
     <use xlink:href="#m320e83c605" x="188.734091" y="127.607001" style="fill: #f781bf"/>
     <use xlink:href="#m320e83c605" x="208.756818" y="127.926251" style="fill: #f781bf"/>
     <use xlink:href="#m320e83c605" x="228.779545" y="127.061327" style="fill: #f781bf"/>
     <use xlink:href="#m320e83c605" x="248.802273" y="124.136726" style="fill: #f781bf"/>
     <use xlink:href="#m320e83c605" x="268.825" y="119.023506" style="fill: #f781bf"/>
     <use xlink:href="#m320e83c605" x="288.847727" y="113.33903" style="fill: #f781bf"/>
     <use xlink:href="#m320e83c605" x="308.870455" y="109.196872" style="fill: #f781bf"/>
     <use xlink:href="#m320e83c605" x="328.893182" y="107.599307" style="fill: #f781bf"/>
     <use xlink:href="#m320e83c605" x="348.915909" y="107.898146" style="fill: #f781bf"/>
     <use xlink:href="#m320e83c605" x="368.938636" y="108.851022" style="fill: #f781bf"/>
     <use xlink:href="#m320e83c605" x="388.961364" y="110.252018" style="fill: #f781bf"/>
     <use xlink:href="#m320e83c605" x="408.984091" y="111.897876" style="fill: #f781bf"/>
     <use xlink:href="#m320e83c605" x="429.006818" y="113.397682" style="fill: #f781bf"/>
     <use xlink:href="#m320e83c605" x="449.029545" y="114.542887" style="fill: #f781bf"/>
     <use xlink:href="#m320e83c605" x="469.052273" y="115.533446" style="fill: #f781bf"/>
    </g>
   </g>
   <g id="line2d_57">
    <path d="M 68.597727 164.18625 
L 88.620455 161.915475 
L 108.643182 160.89697 
L 128.665909 160.980133 
L 148.688636 160.957482 
L 168.711364 159.553446 
L 188.734091 155.42311 
L 208.756818 148.453515 
L 228.779545 140.39082 
L 248.802273 133.027005 
L 268.825 126.446132 
L 288.847727 120.380067 
L 308.870455 115.272885 
L 328.893182 111.364377 
L 348.915909 108.437805 
L 368.938636 106.12924 
L 388.961364 104.14549 
L 408.984091 102.298816 
L 429.006818 100.506957 
L 449.029545 98.689363 
L 469.052273 96.769565 
" clip-path="url(#p598f2ee09d)" style="fill: none; stroke: #a65628; stroke-width: 3; stroke-linecap: round"/>
    <defs>
     <path id="m848f4e395b" d="M 0 5 
C 1.326016 5 2.597899 4.473168 3.535534 3.535534 
C 4.473168 2.597899 5 1.326016 5 0 
C 5 -1.326016 4.473168 -2.597899 3.535534 -3.535534 
C 2.597899 -4.473168 1.326016 -5 0 -5 
C -1.326016 -5 -2.597899 -4.473168 -3.535534 -3.535534 
C -4.473168 -2.597899 -5 -1.326016 -5 0 
C -5 1.326016 -4.473168 2.597899 -3.535534 3.535534 
C -2.597899 4.473168 -1.326016 5 0 5 
z
"/>
    </defs>
    <g clip-path="url(#p598f2ee09d)">
     <use xlink:href="#m848f4e395b" x="68.597727" y="164.18625" style="fill: #a65628"/>
     <use xlink:href="#m848f4e395b" x="88.620455" y="161.915475" style="fill: #a65628"/>
     <use xlink:href="#m848f4e395b" x="108.643182" y="160.89697" style="fill: #a65628"/>
     <use xlink:href="#m848f4e395b" x="128.665909" y="160.980133" style="fill: #a65628"/>
     <use xlink:href="#m848f4e395b" x="148.688636" y="160.957482" style="fill: #a65628"/>
     <use xlink:href="#m848f4e395b" x="168.711364" y="159.553446" style="fill: #a65628"/>
     <use xlink:href="#m848f4e395b" x="188.734091" y="155.42311" style="fill: #a65628"/>
     <use xlink:href="#m848f4e395b" x="208.756818" y="148.453515" style="fill: #a65628"/>
     <use xlink:href="#m848f4e395b" x="228.779545" y="140.39082" style="fill: #a65628"/>
     <use xlink:href="#m848f4e395b" x="248.802273" y="133.027005" style="fill: #a65628"/>
     <use xlink:href="#m848f4e395b" x="268.825" y="126.446132" style="fill: #a65628"/>
     <use xlink:href="#m848f4e395b" x="288.847727" y="120.380067" style="fill: #a65628"/>
     <use xlink:href="#m848f4e395b" x="308.870455" y="115.272885" style="fill: #a65628"/>
     <use xlink:href="#m848f4e395b" x="328.893182" y="111.364377" style="fill: #a65628"/>
     <use xlink:href="#m848f4e395b" x="348.915909" y="108.437805" style="fill: #a65628"/>
     <use xlink:href="#m848f4e395b" x="368.938636" y="106.12924" style="fill: #a65628"/>
     <use xlink:href="#m848f4e395b" x="388.961364" y="104.14549" style="fill: #a65628"/>
     <use xlink:href="#m848f4e395b" x="408.984091" y="102.298816" style="fill: #a65628"/>
     <use xlink:href="#m848f4e395b" x="429.006818" y="100.506957" style="fill: #a65628"/>
     <use xlink:href="#m848f4e395b" x="449.029545" y="98.689363" style="fill: #a65628"/>
     <use xlink:href="#m848f4e395b" x="469.052273" y="96.769565" style="fill: #a65628"/>
    </g>
   </g>
   <g id="line2d_58">
    <path d="M 68.597727 111.650308 
L 88.620455 110.947488 
L 108.643182 110.455304 
L 128.665909 110.172004 
L 148.688636 110.117878 
L 168.711364 110.288636 
L 188.734091 110.812503 
L 208.756818 112.415053 
L 228.779545 115.514217 
L 248.802273 119.397511 
L 268.825 123.133161 
L 288.847727 126.0284 
L 308.870455 127.887843 
L 328.893182 128.904501 
L 348.915909 129.324458 
L 368.938636 129.419218 
L 388.961364 129.927579 
L 408.984091 132.123752 
L 429.006818 135.582187 
L 449.029545 137.599181 
L 469.052273 138.01915 
" clip-path="url(#p598f2ee09d)" style="fill: none; stroke: #984ea3; stroke-width: 3; stroke-linecap: round"/>
    <defs>
     <path id="mc565de870f" d="M 0 5 
C 1.326016 5 2.597899 4.473168 3.535534 3.535534 
C 4.473168 2.597899 5 1.326016 5 0 
C 5 -1.326016 4.473168 -2.597899 3.535534 -3.535534 
C 2.597899 -4.473168 1.326016 -5 0 -5 
C -1.326016 -5 -2.597899 -4.473168 -3.535534 -3.535534 
C -4.473168 -2.597899 -5 -1.326016 -5 0 
C -5 1.326016 -4.473168 2.597899 -3.535534 3.535534 
C -2.597899 4.473168 -1.326016 5 0 5 
z
"/>
    </defs>
    <g clip-path="url(#p598f2ee09d)">
     <use xlink:href="#mc565de870f" x="68.597727" y="111.650308" style="fill: #984ea3"/>
     <use xlink:href="#mc565de870f" x="88.620455" y="110.947488" style="fill: #984ea3"/>
     <use xlink:href="#mc565de870f" x="108.643182" y="110.455304" style="fill: #984ea3"/>
     <use xlink:href="#mc565de870f" x="128.665909" y="110.172004" style="fill: #984ea3"/>
     <use xlink:href="#mc565de870f" x="148.688636" y="110.117878" style="fill: #984ea3"/>
     <use xlink:href="#mc565de870f" x="168.711364" y="110.288636" style="fill: #984ea3"/>
     <use xlink:href="#mc565de870f" x="188.734091" y="110.812503" style="fill: #984ea3"/>
     <use xlink:href="#mc565de870f" x="208.756818" y="112.415053" style="fill: #984ea3"/>
     <use xlink:href="#mc565de870f" x="228.779545" y="115.514217" style="fill: #984ea3"/>
     <use xlink:href="#mc565de870f" x="248.802273" y="119.397511" style="fill: #984ea3"/>
     <use xlink:href="#mc565de870f" x="268.825" y="123.133161" style="fill: #984ea3"/>
     <use xlink:href="#mc565de870f" x="288.847727" y="126.0284" style="fill: #984ea3"/>
     <use xlink:href="#mc565de870f" x="308.870455" y="127.887843" style="fill: #984ea3"/>
     <use xlink:href="#mc565de870f" x="328.893182" y="128.904501" style="fill: #984ea3"/>
     <use xlink:href="#mc565de870f" x="348.915909" y="129.324458" style="fill: #984ea3"/>
     <use xlink:href="#mc565de870f" x="368.938636" y="129.419218" style="fill: #984ea3"/>
     <use xlink:href="#mc565de870f" x="388.961364" y="129.927579" style="fill: #984ea3"/>
     <use xlink:href="#mc565de870f" x="408.984091" y="132.123752" style="fill: #984ea3"/>
     <use xlink:href="#mc565de870f" x="429.006818" y="135.582187" style="fill: #984ea3"/>
     <use xlink:href="#mc565de870f" x="449.029545" y="137.599181" style="fill: #984ea3"/>
     <use xlink:href="#mc565de870f" x="469.052273" y="138.01915" style="fill: #984ea3"/>
    </g>
   </g>
   <g id="line2d_59">
    <path d="M 68.597727 131.858698 
L 88.620455 131.376258 
L 108.643182 131.274822 
L 128.665909 131.800536 
L 148.688636 132.661177 
L 168.711364 134.058557 
L 188.734091 137.904701 
L 208.756818 147.800392 
L 228.779545 157.75984 
L 248.802273 156.964974 
L 268.825 146.814864 
L 288.847727 134.513501 
L 308.870455 128.604673 
L 328.893182 128.547691 
L 348.915909 129.616905 
L 368.938636 131.39039 
L 388.961364 133.129163 
L 408.984091 133.993944 
L 429.006818 134.36782 
L 449.029545 134.483866 
L 469.052273 133.703345 
" clip-path="url(#p598f2ee09d)" style="fill: none; stroke: #999999; stroke-width: 3; stroke-linecap: round"/>
    <defs>
     <path id="m541b7b7364" d="M 0 5 
C 1.326016 5 2.597899 4.473168 3.535534 3.535534 
C 4.473168 2.597899 5 1.326016 5 0 
C 5 -1.326016 4.473168 -2.597899 3.535534 -3.535534 
C 2.597899 -4.473168 1.326016 -5 0 -5 
C -1.326016 -5 -2.597899 -4.473168 -3.535534 -3.535534 
C -4.473168 -2.597899 -5 -1.326016 -5 0 
C -5 1.326016 -4.473168 2.597899 -3.535534 3.535534 
C -2.597899 4.473168 -1.326016 5 0 5 
z
"/>
    </defs>
    <g clip-path="url(#p598f2ee09d)">
     <use xlink:href="#m541b7b7364" x="68.597727" y="131.858698" style="fill: #999999"/>
     <use xlink:href="#m541b7b7364" x="88.620455" y="131.376258" style="fill: #999999"/>
     <use xlink:href="#m541b7b7364" x="108.643182" y="131.274822" style="fill: #999999"/>
     <use xlink:href="#m541b7b7364" x="128.665909" y="131.800536" style="fill: #999999"/>
     <use xlink:href="#m541b7b7364" x="148.688636" y="132.661177" style="fill: #999999"/>
     <use xlink:href="#m541b7b7364" x="168.711364" y="134.058557" style="fill: #999999"/>
     <use xlink:href="#m541b7b7364" x="188.734091" y="137.904701" style="fill: #999999"/>
     <use xlink:href="#m541b7b7364" x="208.756818" y="147.800392" style="fill: #999999"/>
     <use xlink:href="#m541b7b7364" x="228.779545" y="157.75984" style="fill: #999999"/>
     <use xlink:href="#m541b7b7364" x="248.802273" y="156.964974" style="fill: #999999"/>
     <use xlink:href="#m541b7b7364" x="268.825" y="146.814864" style="fill: #999999"/>
     <use xlink:href="#m541b7b7364" x="288.847727" y="134.513501" style="fill: #999999"/>
     <use xlink:href="#m541b7b7364" x="308.870455" y="128.604673" style="fill: #999999"/>
     <use xlink:href="#m541b7b7364" x="328.893182" y="128.547691" style="fill: #999999"/>
     <use xlink:href="#m541b7b7364" x="348.915909" y="129.616905" style="fill: #999999"/>
     <use xlink:href="#m541b7b7364" x="368.938636" y="131.39039" style="fill: #999999"/>
     <use xlink:href="#m541b7b7364" x="388.961364" y="133.129163" style="fill: #999999"/>
     <use xlink:href="#m541b7b7364" x="408.984091" y="133.993944" style="fill: #999999"/>
     <use xlink:href="#m541b7b7364" x="429.006818" y="134.36782" style="fill: #999999"/>
     <use xlink:href="#m541b7b7364" x="449.029545" y="134.483866" style="fill: #999999"/>
     <use xlink:href="#m541b7b7364" x="469.052273" y="133.703345" style="fill: #999999"/>
    </g>
   </g>
   <g id="patch_3">
    <path d="M 48.575 170.6275 
L 48.575 28.92 
" style="fill: none"/>
   </g>
   <g id="patch_4">
    <path d="M 489.075 170.6275 
L 489.075 28.92 
" style="fill: none"/>
   </g>
   <g id="patch_5">
    <path d="M 48.575 170.6275 
L 489.075 170.6275 
" style="fill: none"/>
   </g>
   <g id="patch_6">
    <path d="M 48.575 28.92 
L 489.075 28.92 
" style="fill: none"/>
   </g>
   <g id="text_29">
    <!-- Layer 10 - Gemma 1 2B Base -->
    <g style="fill: #262626" transform="translate(180.387813 22.92) scale(0.12 -0.12)">
     <defs>
      <path id="DejaVuSerif-4c" d="M 353 0 
L 353 331 
L 947 331 
L 947 4331 
L 353 4331 
L 353 4666 
L 2175 4666 
L 2175 4331 
L 1581 4331 
L 1581 384 
L 3713 384 
L 3713 1166 
L 4097 1166 
L 4097 0 
L 353 0 
z
" transform="scale(0.015625)"/>
      <path id="DejaVuSerif-79" d="M 1381 -609 
L 1600 -56 
L 359 2988 
L -19 2988 
L -19 3322 
L 1509 3322 
L 1509 2988 
L 978 2988 
L 1913 703 
L 2847 2988 
L 2350 2988 
L 2350 3322 
L 3597 3322 
L 3597 2988 
L 3225 2988 
L 1703 -750 
Q 1547 -1138 1356 -1280 
Q 1166 -1422 819 -1422 
Q 672 -1422 517 -1397 
Q 363 -1372 206 -1325 
L 206 -691 
L 500 -691 
Q 519 -903 608 -995 
Q 697 -1088 884 -1088 
Q 1056 -1088 1161 -992 
Q 1266 -897 1381 -609 
z
" transform="scale(0.015625)"/>
      <path id="DejaVuSerif-47" d="M 4097 3272 
Q 3988 3856 3641 4136 
Q 3294 4416 2675 4416 
Q 1869 4416 1472 3897 
Q 1075 3378 1075 2328 
Q 1075 1300 1484 772 
Q 1894 244 2688 244 
Q 3041 244 3362 331 
Q 3684 419 3975 594 
L 3975 1797 
L 3097 1797 
L 3097 2131 
L 4609 2131 
L 4609 391 
Q 4194 150 3714 29 
Q 3234 -91 2688 -91 
Q 1631 -91 995 570 
Q 359 1231 359 2328 
Q 359 3434 996 4092 
Q 1634 4750 2713 4750 
Q 3113 4750 3539 4658 
Q 3966 4566 4447 4378 
L 4447 3272 
L 4097 3272 
z
" transform="scale(0.015625)"/>
      <path id="DejaVuSerif-42" d="M 1581 331 
L 2516 331 
Q 3078 331 3337 575 
Q 3597 819 3597 1350 
Q 3597 1878 3339 2120 
Q 3081 2363 2516 2363 
L 1581 2363 
L 1581 331 
z
M 1581 2694 
L 2375 2694 
Q 2888 2694 3123 2891 
Q 3359 3088 3359 3513 
Q 3359 3941 3123 4136 
Q 2888 4331 2375 4331 
L 1581 4331 
L 1581 2694 
z
M 353 0 
L 353 331 
L 947 331 
L 947 4331 
L 353 4331 
L 353 4666 
L 2656 4666 
Q 3363 4666 3720 4377 
Q 4078 4088 4078 3513 
Q 4078 3097 3829 2850 
Q 3581 2603 3103 2547 
Q 3697 2472 4005 2167 
Q 4313 1863 4313 1350 
Q 4313 656 3875 328 
Q 3438 0 2509 0 
L 353 0 
z
" transform="scale(0.015625)"/>
     </defs>
     <use xlink:href="#DejaVuSerif-4c"/>
     <use xlink:href="#DejaVuSerif-61" x="66.40625"/>
     <use xlink:href="#DejaVuSerif-79" x="126.025391"/>
     <use xlink:href="#DejaVuSerif-65" x="182.519531"/>
     <use xlink:href="#DejaVuSerif-72" x="241.699219"/>
     <use xlink:href="#DejaVuSerif-20" x="289.501953"/>
     <use xlink:href="#DejaVuSerif-31" x="321.289062"/>
     <use xlink:href="#DejaVuSerif-30" x="384.912109"/>
     <use xlink:href="#DejaVuSerif-20" x="448.535156"/>
     <use xlink:href="#DejaVuSerif-2d" x="480.322266"/>
     <use xlink:href="#DejaVuSerif-20" x="514.111328"/>
     <use xlink:href="#DejaVuSerif-47" x="545.898438"/>
     <use xlink:href="#DejaVuSerif-65" x="625.78125"/>
     <use xlink:href="#DejaVuSerif-6d" x="684.960938"/>
     <use xlink:href="#DejaVuSerif-6d" x="779.785156"/>
     <use xlink:href="#DejaVuSerif-61" x="874.609375"/>
     <use xlink:href="#DejaVuSerif-20" x="934.228516"/>
     <use xlink:href="#DejaVuSerif-31" x="966.015625"/>
     <use xlink:href="#DejaVuSerif-20" x="1029.638672"/>
     <use xlink:href="#DejaVuSerif-32" x="1061.425781"/>
     <use xlink:href="#DejaVuSerif-42" x="1125.048828"/>
     <use xlink:href="#DejaVuSerif-20" x="1198.535156"/>
     <use xlink:href="#DejaVuSerif-42" x="1230.322266"/>
     <use xlink:href="#DejaVuSerif-61" x="1303.808594"/>
     <use xlink:href="#DejaVuSerif-73" x="1363.427734"/>
     <use xlink:href="#DejaVuSerif-65" x="1414.746094"/>
    </g>
   </g>
   <g id="legend_1">
    <g id="line2d_60">
     <path d="M 515.1 37.018438 
L 525.1 37.018438 
L 535.1 37.018438 
" style="fill: none; stroke: #377eb8; stroke-width: 3; stroke-linecap: round"/>
     <g>
      <use xlink:href="#m685297c5e9" x="525.1" y="37.018438" style="fill: #377eb8"/>
     </g>
    </g>
    <g id="text_30">
     <!-- AI Coordination -->
     <g style="fill: #262626" transform="translate(543.1 40.518438) scale(0.1 -0.1)">
      <defs>
       <path id="DejaVuSerif-41" d="M 1281 1691 
L 2994 1691 
L 2138 3909 
L 1281 1691 
z
M -38 0 
L -38 331 
L 372 331 
L 2034 4666 
L 2559 4666 
L 4225 331 
L 4684 331 
L 4684 0 
L 2988 0 
L 2988 331 
L 3506 331 
L 3116 1356 
L 1153 1356 
L 763 331 
L 1275 331 
L 1275 0 
L -38 0 
z
" transform="scale(0.015625)"/>
       <path id="DejaVuSerif-49" d="M 1581 331 
L 2175 331 
L 2175 0 
L 353 0 
L 353 331 
L 947 331 
L 947 4331 
L 353 4331 
L 353 4666 
L 2175 4666 
L 2175 4331 
L 1581 4331 
L 1581 331 
z
" transform="scale(0.015625)"/>
       <path id="DejaVuSerif-43" d="M 4513 1234 
Q 4306 581 3820 245 
Q 3334 -91 2591 -91 
Q 2134 -91 1743 65 
Q 1353 222 1050 525 
Q 700 875 529 1320 
Q 359 1766 359 2328 
Q 359 3416 987 4083 
Q 1616 4750 2644 4750 
Q 3025 4750 3456 4650 
Q 3888 4550 4384 4347 
L 4384 3272 
L 4031 3272 
Q 3916 3859 3567 4137 
Q 3219 4416 2591 4416 
Q 1844 4416 1459 3886 
Q 1075 3356 1075 2328 
Q 1075 1303 1459 773 
Q 1844 244 2591 244 
Q 3113 244 3450 492 
Q 3788 741 3938 1234 
L 4513 1234 
z
" transform="scale(0.015625)"/>
       <path id="DejaVuSerif-64" d="M 3359 331 
L 3909 331 
L 3909 0 
L 2784 0 
L 2784 519 
Q 2616 206 2355 57 
Q 2094 -91 1709 -91 
Q 1097 -91 708 395 
Q 319 881 319 1663 
Q 319 2444 706 2928 
Q 1094 3413 1709 3413 
Q 2094 3413 2355 3264 
Q 2616 3116 2784 2803 
L 2784 4531 
L 2241 4531 
L 2241 4863 
L 3359 4863 
L 3359 331 
z
M 2784 1497 
L 2784 1825 
Q 2784 2422 2554 2737 
Q 2325 3053 1888 3053 
Q 1444 3053 1217 2703 
Q 991 2353 991 1663 
Q 991 975 1217 622 
Q 1444 269 1888 269 
Q 2325 269 2554 583 
Q 2784 897 2784 1497 
z
" transform="scale(0.015625)"/>
      </defs>
      <use xlink:href="#DejaVuSerif-41"/>
      <use xlink:href="#DejaVuSerif-49" x="72.216797"/>
      <use xlink:href="#DejaVuSerif-20" x="111.71875"/>
      <use xlink:href="#DejaVuSerif-43" x="143.505859"/>
      <use xlink:href="#DejaVuSerif-6f" x="220.019531"/>
      <use xlink:href="#DejaVuSerif-6f" x="280.224609"/>
      <use xlink:href="#DejaVuSerif-72" x="340.429688"/>
      <use xlink:href="#DejaVuSerif-64" x="388.232422"/>
      <use xlink:href="#DejaVuSerif-69" x="452.246094"/>
      <use xlink:href="#DejaVuSerif-6e" x="484.228516"/>
      <use xlink:href="#DejaVuSerif-61" x="548.632812"/>
      <use xlink:href="#DejaVuSerif-74" x="608.251953"/>
      <use xlink:href="#DejaVuSerif-69" x="648.4375"/>
      <use xlink:href="#DejaVuSerif-6f" x="680.419922"/>
      <use xlink:href="#DejaVuSerif-6e" x="740.625"/>
     </g>
    </g>
    <g id="line2d_61">
     <path d="M 515.1 51.696563 
L 525.1 51.696563 
L 535.1 51.696563 
" style="fill: none; stroke: #ff7f00; stroke-width: 3; stroke-linecap: round"/>
     <g>
      <use xlink:href="#mdbebe80c78" x="525.1" y="51.696563" style="fill: #ff7f00"/>
     </g>
    </g>
    <g id="text_31">
     <!-- Corrigibility -->
     <g style="fill: #262626" transform="translate(543.1 55.196563) scale(0.1 -0.1)">
      <use xlink:href="#DejaVuSerif-43"/>
      <use xlink:href="#DejaVuSerif-6f" x="76.513672"/>
      <use xlink:href="#DejaVuSerif-72" x="136.71875"/>
      <use xlink:href="#DejaVuSerif-72" x="184.521484"/>
      <use xlink:href="#DejaVuSerif-69" x="232.324219"/>
      <use xlink:href="#DejaVuSerif-67" x="264.306641"/>
      <use xlink:href="#DejaVuSerif-69" x="328.320312"/>
      <use xlink:href="#DejaVuSerif-62" x="360.302734"/>
      <use xlink:href="#DejaVuSerif-69" x="424.316406"/>
      <use xlink:href="#DejaVuSerif-6c" x="456.298828"/>
      <use xlink:href="#DejaVuSerif-69" x="488.28125"/>
      <use xlink:href="#DejaVuSerif-74" x="520.263672"/>
      <use xlink:href="#DejaVuSerif-79" x="560.449219"/>
     </g>
    </g>
    <g id="line2d_62">
     <path d="M 515.1 66.516875 
L 525.1 66.516875 
L 535.1 66.516875 
" style="fill: none; stroke: #4daf4a; stroke-width: 3; stroke-linecap: round"/>
     <g>
      <use xlink:href="#m094f3ea6ed" x="525.1" y="66.516875" style="fill: #4daf4a"/>
     </g>
    </g>
    <g id="text_32">
     <!-- Hallucination -->
     <g style="fill: #262626" transform="translate(543.1 70.016875) scale(0.1 -0.1)">
      <defs>
       <path id="DejaVuSerif-48" d="M 353 0 
L 353 331 
L 947 331 
L 947 4331 
L 353 4331 
L 353 4666 
L 2175 4666 
L 2175 4331 
L 1581 4331 
L 1581 2719 
L 4000 2719 
L 4000 4331 
L 3406 4331 
L 3406 4666 
L 5228 4666 
L 5228 4331 
L 4634 4331 
L 4634 331 
L 5228 331 
L 5228 0 
L 3406 0 
L 3406 331 
L 4000 331 
L 4000 2338 
L 1581 2338 
L 1581 331 
L 2175 331 
L 2175 0 
L 353 0 
z
" transform="scale(0.015625)"/>
      </defs>
      <use xlink:href="#DejaVuSerif-48"/>
      <use xlink:href="#DejaVuSerif-61" x="87.207031"/>
      <use xlink:href="#DejaVuSerif-6c" x="146.826172"/>
      <use xlink:href="#DejaVuSerif-6c" x="178.808594"/>
      <use xlink:href="#DejaVuSerif-75" x="210.791016"/>
      <use xlink:href="#DejaVuSerif-63" x="275.195312"/>
      <use xlink:href="#DejaVuSerif-69" x="331.201172"/>
      <use xlink:href="#DejaVuSerif-6e" x="363.183594"/>
      <use xlink:href="#DejaVuSerif-61" x="427.587891"/>
      <use xlink:href="#DejaVuSerif-74" x="487.207031"/>
      <use xlink:href="#DejaVuSerif-69" x="527.392578"/>
      <use xlink:href="#DejaVuSerif-6f" x="559.375"/>
      <use xlink:href="#DejaVuSerif-6e" x="619.580078"/>
     </g>
    </g>
    <g id="line2d_63">
     <path d="M 515.1 81.195 
L 525.1 81.195 
L 535.1 81.195 
" style="fill: none; stroke: #f781bf; stroke-width: 3; stroke-linecap: round"/>
     <g>
      <use xlink:href="#m320e83c605" x="525.1" y="81.195" style="fill: #f781bf"/>
     </g>
    </g>
    <g id="text_33">
     <!-- Myopic Reward -->
     <g style="fill: #262626" transform="translate(543.1 84.695) scale(0.1 -0.1)">
      <defs>
       <path id="DejaVuSerif-4d" d="M 353 0 
L 353 331 
L 947 331 
L 947 4331 
L 319 4331 
L 319 4666 
L 1678 4666 
L 3316 1344 
L 4953 4666 
L 6228 4666 
L 6228 4331 
L 5606 4331 
L 5606 331 
L 6203 331 
L 6203 0 
L 4378 0 
L 4378 331 
L 4972 331 
L 4972 3938 
L 3372 684 
L 2931 684 
L 1331 3938 
L 1331 331 
L 1925 331 
L 1925 0 
L 353 0 
z
" transform="scale(0.015625)"/>
       <path id="DejaVuSerif-52" d="M 3066 2316 
Q 3284 2256 3442 2114 
Q 3600 1972 3725 1716 
L 4403 331 
L 4972 331 
L 4972 0 
L 3872 0 
L 3144 1484 
Q 2934 1916 2759 2042 
Q 2584 2169 2278 2169 
L 1581 2169 
L 1581 331 
L 2241 331 
L 2241 0 
L 353 0 
L 353 331 
L 947 331 
L 947 4331 
L 353 4331 
L 353 4666 
L 2719 4666 
Q 3400 4666 3770 4341 
Q 4141 4016 4141 3419 
Q 4141 2938 3870 2661 
Q 3600 2384 3066 2316 
z
M 1581 2503 
L 2503 2503 
Q 2975 2503 3200 2726 
Q 3425 2950 3425 3419 
Q 3425 3888 3200 4109 
Q 2975 4331 2503 4331 
L 1581 4331 
L 1581 2503 
z
" transform="scale(0.015625)"/>
      </defs>
      <use xlink:href="#DejaVuSerif-4d"/>
      <use xlink:href="#DejaVuSerif-79" x="102.392578"/>
      <use xlink:href="#DejaVuSerif-6f" x="158.886719"/>
      <use xlink:href="#DejaVuSerif-70" x="219.091797"/>
      <use xlink:href="#DejaVuSerif-69" x="283.105469"/>
      <use xlink:href="#DejaVuSerif-63" x="315.087891"/>
      <use xlink:href="#DejaVuSerif-20" x="371.09375"/>
      <use xlink:href="#DejaVuSerif-52" x="402.880859"/>
      <use xlink:href="#DejaVuSerif-65" x="478.173828"/>
      <use xlink:href="#DejaVuSerif-77" x="537.353516"/>
      <use xlink:href="#DejaVuSerif-61" x="622.949219"/>
      <use xlink:href="#DejaVuSerif-72" x="682.568359"/>
      <use xlink:href="#DejaVuSerif-64" x="730.371094"/>
     </g>
    </g>
    <g id="line2d_64">
     <path d="M 515.1 96.015313 
L 525.1 96.015313 
L 535.1 96.015313 
" style="fill: none; stroke: #a65628; stroke-width: 3; stroke-linecap: round"/>
     <g>
      <use xlink:href="#m848f4e395b" x="525.1" y="96.015313" style="fill: #a65628"/>
     </g>
    </g>
    <g id="text_34">
     <!-- Survival Instinct -->
     <g style="fill: #262626" transform="translate(543.1 99.515313) scale(0.1 -0.1)">
      <use xlink:href="#DejaVuSerif-53"/>
      <use xlink:href="#DejaVuSerif-75" x="68.505859"/>
      <use xlink:href="#DejaVuSerif-72" x="132.910156"/>
      <use xlink:href="#DejaVuSerif-76" x="180.712891"/>
      <use xlink:href="#DejaVuSerif-69" x="237.207031"/>
      <use xlink:href="#DejaVuSerif-76" x="269.189453"/>
      <use xlink:href="#DejaVuSerif-61" x="325.683594"/>
      <use xlink:href="#DejaVuSerif-6c" x="385.302734"/>
      <use xlink:href="#DejaVuSerif-20" x="417.285156"/>
      <use xlink:href="#DejaVuSerif-49" x="449.072266"/>
      <use xlink:href="#DejaVuSerif-6e" x="488.574219"/>
      <use xlink:href="#DejaVuSerif-73" x="552.978516"/>
      <use xlink:href="#DejaVuSerif-74" x="604.296875"/>
      <use xlink:href="#DejaVuSerif-69" x="644.482422"/>
      <use xlink:href="#DejaVuSerif-6e" x="676.464844"/>
      <use xlink:href="#DejaVuSerif-63" x="740.869141"/>
      <use xlink:href="#DejaVuSerif-74" x="796.875"/>
     </g>
    </g>
    <g id="line2d_65">
     <path d="M 515.1 110.693438 
L 525.1 110.693438 
L 535.1 110.693438 
" style="fill: none; stroke: #984ea3; stroke-width: 3; stroke-linecap: round"/>
     <g>
      <use xlink:href="#mc565de870f" x="525.1" y="110.693438" style="fill: #984ea3"/>
     </g>
    </g>
    <g id="text_35">
     <!-- Sycophancy -->
     <g style="fill: #262626" transform="translate(543.1 114.193438) scale(0.1 -0.1)">
      <use xlink:href="#DejaVuSerif-53"/>
      <use xlink:href="#DejaVuSerif-79" x="68.505859"/>
      <use xlink:href="#DejaVuSerif-63" x="125"/>
      <use xlink:href="#DejaVuSerif-6f" x="181.005859"/>
      <use xlink:href="#DejaVuSerif-70" x="241.210938"/>
      <use xlink:href="#DejaVuSerif-68" x="305.224609"/>
      <use xlink:href="#DejaVuSerif-61" x="369.628906"/>
      <use xlink:href="#DejaVuSerif-6e" x="429.248047"/>
      <use xlink:href="#DejaVuSerif-63" x="493.652344"/>
      <use xlink:href="#DejaVuSerif-79" x="549.658203"/>
     </g>
    </g>
    <g id="line2d_66">
     <path d="M 515.1 125.51375 
L 525.1 125.51375 
L 535.1 125.51375 
" style="fill: none; stroke: #999999; stroke-width: 3; stroke-linecap: round"/>
     <g>
      <use xlink:href="#m541b7b7364" x="525.1" y="125.51375" style="fill: #999999"/>
     </g>
    </g>
    <g id="text_36">
     <!-- Refusal -->
     <g style="fill: #262626" transform="translate(543.1 129.01375) scale(0.1 -0.1)">
      <defs>
       <path id="DejaVuSerif-66" d="M 2753 4078 
L 2450 4078 
Q 2447 4313 2317 4434 
Q 2188 4556 1941 4556 
Q 1619 4556 1487 4379 
Q 1356 4203 1356 3750 
L 1356 3322 
L 2284 3322 
L 2284 2988 
L 1356 2988 
L 1356 331 
L 2094 331 
L 2094 0 
L 231 0 
L 231 331 
L 781 331 
L 781 2988 
L 231 2988 
L 231 3322 
L 781 3322 
L 781 3738 
Q 781 4294 1070 4578 
Q 1359 4863 1919 4863 
Q 2128 4863 2337 4825 
Q 2547 4788 2753 4709 
L 2753 4078 
z
" transform="scale(0.015625)"/>
      </defs>
      <use xlink:href="#DejaVuSerif-52"/>
      <use xlink:href="#DejaVuSerif-65" x="75.292969"/>
      <use xlink:href="#DejaVuSerif-66" x="134.472656"/>
      <use xlink:href="#DejaVuSerif-75" x="171.484375"/>
      <use xlink:href="#DejaVuSerif-73" x="235.888672"/>
      <use xlink:href="#DejaVuSerif-61" x="287.207031"/>
      <use xlink:href="#DejaVuSerif-6c" x="346.826172"/>
     </g>
    </g>
   </g>
  </g>
 </g>
 <defs>
  <clipPath id="p598f2ee09d">
   <rect x="48.575" y="28.92" width="440.5" height="141.7075"/>
  </clipPath>
 </defs>
</svg>
